# xmcd CD database file
#
# Track frame offsets:
#	150
#	5622
#	17830
#	22862
#	41077
#	47520
#	57192
#	60900
#	70360
#	82542
#	87215
#	88740
#	94790
#	98177
#	109440
#	122722
#	126022
#	129267
#	141437
#	145200
#	158515
#	164212
#	170765
#	174407
#	177172
#	183962
#	188657
#	195115
#	198500
#	216542
#	225592
#	231782
#	241459
#	251050
#	261725
#
# Disc length: 3634 seconds
#
# Revision: 0
# Processed by: cddbd v1.5.1PL2 Copyright (c) Steve Scherf et al.
# Submitted via: CDex 1.51
#
DISCID=e60e3023
DTITLE=Siegbert Rampe, harpsichord, clavichord - Georg Muffat Complete Clavier Words
DYEAR=2003
DGENRE=Baroque
TTITLE0=Partita D minor (a) - Prelude
TTITLE1=Partita D minor (a)- Allemande
TTITLE2=Partita D minor (b) - Prelude
TTITLE3=Partita D minor (b) - Allemande
TTITLE4=Partita D minor (b) - Courante
TTITLE5=Partita D minor (b) - Saraband
TTITLE6=Partita D minor (b) - Gavotte
TTITLE7=Partita D minor (b) - Menuet
TTITLE8=Partita D minor (b) - Gigue
TTITLE9=L'Amerande. Prelude F major
TTITLE10=Partita F major - Prelude
TTITLE11=Partita F major - Ballet
TTITLE12=Partita F major - Gavotte
TTITLE13=Partita F major - Menuet and Minuette
TTITLE14=Partita F major - Rigodon
TTITLE15=Partita F major - Burlesca
TTITLE16=Partita F major - La Folle
TTITLE17=Partita F major - Passagaglia
TTITLE18=Partita F major (b) - Prelude
TTITLE19=Partita F major (b) - Allemande
TTITLE20=Partita F major (b) - Courant
TTITLE21=Partita F major (b) - Sarabande
TTITLE22=Partita F major (b) - Gavotte
TTITLE23=Partita F major (b) - Menuete
TTITLE24=Partita F major (b) - Gigue l'Angloise. Gayement
TTITLE25=Partita F major (b) - Les Pepheuses
TTITLE26=Gigue G major
TTITLE27=Partita C major - Prelude
TTITLE28=Partita C major - Allemande
TTITLE29=Partita C major - Courrante
TTITLE30=Partita C major - Sarabande
TTITLE31=Partita C major - Gavotte 1 and 2
TTITLE32=Partita C major - Marche
TTITLE33=Partita C major - Pastorella
TTITLE34=Partita C major - Menuet and Minuette
EXTD=YEAR: 2003
EXTT0=
EXTT1=
EXTT2=
EXTT3=
EXTT4=
EXTT5=
EXTT6=
EXTT7=
EXTT8=
EXTT9=
EXTT10=
EXTT11=
EXTT12=
EXTT13=
EXTT14=
EXTT15=
EXTT16=
EXTT17=
EXTT18=
EXTT19=
EXTT20=
EXTT21=
EXTT22=
EXTT23=
EXTT24=
EXTT25=
EXTT26=
EXTT27=
EXTT28=
EXTT29=
EXTT30=
EXTT31=
EXTT32=
EXTT33=
EXTT34=
PLAYORDER=
